<svg xmlns="http://www.w3.org/2000/svg" viewBox="0 0 400 300" fill="none">
  <rect width="400" height="300" fill="#f3f4f6"/>
  <path d="M200 120c-22.091 0-40 17.909-40 40s17.909 40 40 40 40-17.909 40-40-17.909-40-40-40zm0 60c-11.046 0-20-8.954-20-20s8.954-20 20-20 20 8.954 20 20-8.954 20-20 20z" fill="#9ca3af"/>
  <path d="M280 100H120c-11.046 0-20 8.954-20 20v60c0 11.046 8.954 20 20 20h160c11.046 0 20-8.954 20-20v-60c0-11.046-8.954-20-20-20zm0 80H120v-60h160v60z" fill="#9ca3af"/>
  <circle cx="250" cy="130" r="8" fill="#9ca3af"/>
</svg>
